HIERARCHY
ROOT Elbow
{
	OFFSET	0.00	0.00	0.00
	CHANNELS 6 Xposition Yposition Zposition Zrotation Xrotation Yrotation
	JOINT L_Wrist
	{
		OFFSET	 0.208349	 0.000000	 0.000000
		CHANNELS 3 Zrotation Xrotation Yrotation
		JOINT L_index_Proximal
		{
			OFFSET	 0.093499	 0.010637	-0.002083
			CHANNELS 3 Zrotation Xrotation Yrotation
			JOINT L_index_b
			{
				OFFSET	 0.033153	 0.000000	 0.000000
				CHANNELS 3 Zrotation Xrotation Yrotation
				JOINT L_index_c
				{
					OFFSET	 0.018651	 0.000000	 0.000000
					CHANNELS 3 Zrotation Xrotation Yrotation
					End Site
					{
						OFFSET	 0.018651	 0.000000	 0.000000
					}
				}
			}
		}
		JOINT L_middle_Proximal
		{
			OFFSET	 0.090632	-0.006115	-0.003750
			CHANNELS 3 Zrotation Xrotation Yrotation
			JOINT L_middle_b
			{
				OFFSET	 0.037194	 0.000000	 0.000000
				CHANNELS 3 Zrotation Xrotation Yrotation
				JOINT L_middle_c
				{
					OFFSET	 0.021943	 0.000000	 0.000000
					CHANNELS 3 Zrotation Xrotation Yrotation
					End Site
					{
						OFFSET	 0.021943	 0.000000	 0.000000
					}
				}
			}
		}
		JOINT L_pinky_Proximal
		{
			OFFSET	 0.074015	-0.035449	-0.000417
			CHANNELS 3 Zrotation Xrotation Yrotation
			JOINT L_pinky_b
			{
				OFFSET	 0.027285	 0.000000	 0.000000
				CHANNELS 3 Zrotation Xrotation Yrotation
				JOINT L_pinky_c
				{
					OFFSET	 0.015093	 0.000000	 0.000000
					CHANNELS 3 Zrotation Xrotation Yrotation
					End Site
					{
						OFFSET	 0.015093	 0.000000	 0.000000
					}
				}
			}
		}
		JOINT L_ring_Proximal
		{
			OFFSET	 0.082801	-0.021859	-0.003750
			CHANNELS 3 Zrotation Xrotation Yrotation
			JOINT L_ring_b
			{
				OFFSET	 0.034478	 0.000000	 0.000000
				CHANNELS 3 Zrotation Xrotation Yrotation
				JOINT L_ring_c
				{
					OFFSET	 0.021377	 0.000000	 0.000000
					CHANNELS 3 Zrotation Xrotation Yrotation
					End Site
					{
						OFFSET	 0.021377	 0.000000	 0.000000
					}
				}
			}
		}
		JOINT L_thumb_Proximal
		{
			OFFSET	 0.030306	 0.018528	 0.004584
			CHANNELS 3 Zrotation Xrotation Yrotation
			JOINT L_thumb_a
			{
				OFFSET	 0.038520	 0.000000	 0.000000
				CHANNELS 3 Zrotation Xrotation Yrotation
				JOINT L_thumb_b
				{
					OFFSET	 0.026310	 0.000000	 0.000000
					CHANNELS 3 Zrotation Xrotation Yrotation
					End Site
					{
						OFFSET	 0.026310	 0.000000	 0.000000
					}
				}
			}
		}
	}
}
MOTION
Frames:    12
Frame Time: 0.01666667
-0.435410	-0.392799	 0.885504	 9.579030	 34.768440	-158.766600	 2.932214	-2.543795	-14.593380	-5.248410	 3.532881	-62.675400	-6.954285	 4.372437	-64.280090	-2.458825	 0.891015	-39.833550	-12.186300	-6.809201	-58.708540	-2.468502	 1.709513	-69.403350	-0.588608	 0.221894	-41.314750	-32.486530	-17.048470	-50.050210	 2.021120	-1.196825	-61.260270	 4.332910	-1.949502	-48.431770	-20.039020	-10.678010	-54.139650	 1.484393	-1.014126	-68.677510	 3.684240	-1.392166	-41.388870	 30.939210	 60.973130	-38.571580	-1.290536	 0.202254	-17.813840	-2.049725	 0.476342	-26.163200
-0.434941	-0.392948	 0.886324	 9.819855	 34.098970	-158.876900	 3.008195	-2.557564	-14.674210	-5.262455	 3.459875	-61.925680	-7.398053	 4.623308	-63.962510	-2.732564	 1.014883	-40.752690	-12.033510	-6.941978	-58.811710	-2.176960	 1.507303	-69.393360	-0.398521	 0.152227	-41.819560	-32.534260	-17.021190	-50.710410	 2.016275	-1.199930	-61.510090	 4.131385	-1.871154	-48.717820	-19.991380	-10.737620	-54.406720	 1.378244	-0.956982	-69.535800	 3.364692	-1.286729	-41.847660	 31.109660	 60.854150	-39.297550	-1.409819	 0.215929	-17.412250	-2.236796	 0.515920	-25.971370
-0.435157	-0.392913	 0.886174	 9.669403	 34.378410	-158.817600	 2.882818	-2.541610	-14.580470	-5.192542	 3.452711	-62.089920	-6.957532	 4.359159	-64.098950	-2.578146	 0.940785	-40.093850	-12.117210	-6.863560	-58.519090	-2.362639	 1.632490	-69.282900	-0.400156	 0.151233	-41.410700	-32.571670	-16.987310	-50.391190	 1.957075	-1.161635	-61.379140	 4.095462	-1.844973	-48.487400	-20.006590	-10.699010	-54.199220	 1.461898	-1.004254	-68.970340	 3.525554	-1.328193	-41.275610	 31.035950	 60.934440	-38.845860	-1.368716	 0.213870	-17.761700	-2.034397	 0.474281	-26.243070
-0.435190	-0.392800	 0.886031	 9.543781	 34.648980	-158.760000	 2.750883	-2.530487	-14.515320	-5.251750	 3.492660	-62.055000	-6.911533	 4.338624	-64.197920	-2.412416	 0.879185	-40.043200	-12.191540	-6.821468	-58.300640	-2.413450	 1.664750	-69.190640	-0.482540	 0.182200	-41.373500	-32.553880	-17.011440	-50.128480	 1.881038	-1.114440	-61.286270	 4.074531	-1.836856	-48.518930	-20.001090	-10.705330	-53.981540	 1.509841	-1.029711	-68.584680	 3.501378	-1.322421	-41.371520	 30.960970	 60.963580	-38.622580	-1.359061	 0.214184	-17.910040	-1.942752	 0.455152	-26.368190
-0.434641	-0.393025	 0.886814	 9.782264	 34.000030	-158.874300	 2.799359	-2.550610	-14.633320	-5.318561	 3.461776	-61.322210	-7.340528	 4.587595	-63.965770	-2.651884	 0.986289	-40.803230	-12.055410	-6.941343	-58.317390	-2.170741	 1.493861	-69.065590	-0.385471	 0.147504	-41.889150	-32.582060	-16.995630	-50.702820	 1.943014	-1.157805	-61.573410	 3.995699	-1.810858	-48.745940	-19.938230	-10.771470	-54.186520	 1.391966	-0.963842	-69.388810	 3.241266	-1.241167	-41.897630	 31.013410	 60.871740	-39.310330	-1.452738	 0.222613	-17.420800	-2.122102	 0.488999	-25.946110
-0.434742	-0.393042	 0.886531	 9.664402	 34.256930	-158.822000	 2.660093	-2.540673	-14.574960	-5.327340	 3.507915	-61.466910	-7.032669	 4.405602	-64.090750	-2.676006	 0.984625	-40.397830	-12.108350	-6.888598	-57.903400	-2.320858	 1.594562	-68.979980	-0.656630	 0.247549	-41.323100	-32.563130	-16.999000	-50.265510	 1.997453	-1.179842	-61.134010	 4.037202	-1.817733	-48.464550	-19.941220	-10.743760	-53.795220	 1.502900	-1.026497	-68.662180	 3.226360	-1.213367	-41.210070	 30.784960	 60.997570	-38.572650	-1.369269	 0.213969	-17.761930	-1.970891	 0.459523	-26.245960
-0.434785	-0.393121	 0.886226	 9.564635	 34.471240	-158.776600	 2.554942	-2.534853	-14.540870	-5.376615	 3.544589	-61.528880	-6.988221	 4.380434	-64.122700	-2.555429	 0.935810	-40.221140	-12.171500	-6.857270	-57.656340	-2.367736	 1.620148	-68.761400	-0.723203	 0.272550	-41.300880	-32.538350	-17.033910	-49.909420	 2.057733	-1.207901	-60.822160	 4.036479	-1.817126	-48.458200	-19.936210	-10.752990	-53.477440	 1.578777	-1.068621	-68.181900	 3.181319	-1.197035	-41.231030	 30.696170	 61.033730	-38.257310	-1.362526	 0.214927	-17.927560	-1.912857	 0.447601	-26.337940
-0.434237	-0.393228	 0.887017	 9.812244	 33.887250	-158.909300	 2.576660	-2.552914	-14.646800	-5.411817	 3.502415	-60.894200	-7.383970	 4.600258	-63.802960	-2.704145	 1.005439	-40.789520	-12.066020	-6.947422	-57.780040	-2.206742	 1.504884	-68.579510	-0.544731	 0.208557	-41.904870	-32.521440	-17.049620	-50.249220	 2.137282	-1.259354	-61.010250	 4.084772	-1.852725	-48.779380	-19.911680	-10.790870	-53.666750	 1.428032	-0.978129	-68.810360	 3.068781	-1.173501	-41.844230	 31.017260	 60.894370	-39.034400	-1.475334	 0.227780	-17.550670	-2.102780	 0.485945	-26.019830
-0.434375	-0.393159	 0.886812	 9.709648	 34.104430	-158.852700	 2.505036	-2.543975	-14.594310	-5.318038	 3.483426	-61.231090	-6.955866	 4.332737	-63.798640	-2.808386	 1.026635	-40.156730	-12.100830	-6.907371	-57.543030	-2.392929	 1.625491	-68.372630	-0.676473	 0.255761	-41.425740	-32.506160	-17.053370	-49.864540	 2.241299	-1.307526	-60.511340	 3.967369	-1.783648	-48.400140	-19.888610	-10.784060	-53.299380	 1.596523	-1.077343	-68.018910	 3.086568	-1.156621	-41.075040	 30.919540	 60.973210	-38.562300	-1.442057	 0.226403	-17.845110	-1.966742	 0.459819	-26.314610
-0.434415	-0.393131	 0.886574	 9.618407	 34.303780	-158.801400	 2.466144	-2.534475	-14.538580	-5.347446	 3.509614	-61.340050	-6.909934	 4.303703	-63.793540	-2.626205	 0.955453	-39.978870	-12.154260	-6.880223	-57.351380	-2.443159	 1.653893	-68.188350	-0.707052	 0.267245	-41.409700	-32.489840	-17.078190	-49.590930	 2.254627	-1.308575	-60.256420	 3.903927	-1.756555	-48.436600	-19.860030	-10.805890	-53.007870	 1.630968	-1.091915	-67.600520	 3.052818	-1.146167	-41.148720	 30.850980	 61.002360	-38.306170	-1.436184	 0.227141	-17.973300	-1.888363	 0.442505	-26.374280
-0.434002	-0.393063	 0.887407	 9.817041	 33.823940	-158.895200	 2.574040	-2.541280	-14.578580	-5.368390	 3.461828	-60.734660	-7.279170	 4.508869	-63.507810	-2.668206	 0.988898	-40.669820	-12.090660	-6.935613	-57.639490	-2.129017	 1.445342	-68.342030	-0.623646	 0.239038	-41.947310	-32.498920	-17.070680	-50.059530	 2.220931	-1.296590	-60.546920	 3.793814	-1.721059	-48.789730	-19.852890	-10.829030	-53.360010	 1.424020	-0.967328	-68.368770	 2.755522	-1.049329	-41.688960	 31.115230	 60.871770	-39.131230	-1.529287	 0.236234	-17.559720	-2.061434	 0.476357	-26.018790
-0.434111	-0.392946	 0.887197	 9.750820	 34.018340	-158.851700	 2.544409	-2.531346	-14.520260	-5.334149	 3.477871	-61.002830	-7.006070	 4.326325	-63.352480	-2.671883	 0.969211	-39.872530	-12.112090	-6.910245	-57.279950	-2.229153	 1.505018	-68.048400	-0.863192	 0.323767	-41.127770	-32.459440	-17.090350	-49.659760	 2.272111	-1.311667	-59.988690	 3.772634	-1.695764	-48.394060	-19.815630	-10.833110	-52.954770	 1.577332	-1.054417	-67.519670	 2.879174	-1.076832	-41.006050	 30.902810	 60.982480	-38.450260	-1.456110	 0.227239	-17.736870	-1.863561	 0.432463	-26.127050
